<svg width="209" height="187" viewBox="0 0 209 187" fill="none" xmlns="http://www.w3.org/2000/svg">
    <path d="M65.4113 174.75V180.75H104.433L104.407 174.75H71.8274H65.4113Z" fill="#D9D900"/>
    <path d="M141.411 180.75V174.75H134.995H104.407L104.433 180.75H141.411Z" fill="#AEAE00"/>
    <path d="M13.9998 22.5H32.064C31.8442 21.185 31.6302 19.8518 31.4216 18.5H18.5927H0.528564L18.5927 54L32.0643 64L50.3846 76.5C48.641 73.7939 47.0291 70.9658 45.5356 68L32.064 58L13.9998 22.5Z" fill="#D9D900"/>
    <path d="M174.904 22.5H195L174.904 58L161.013 68C159.435 70.8745 157.671 73.7042 155.686 76.5L174.904 64L188.795 54L208.891 18.5H188.795H175.606C175.373 19.8471 175.139 21.1802 174.904 22.5Z" fill="#AEAE00"/>
    <path d="M80.4113 113.75C80.4113 115.966 83.7942 117.941 89.0739 119.224C94.9948 119.85 99.5412 120.123 104.167 120.078L104.151 116.356C97.3251 116.385 90.0555 115.584 80.4113 113.75Z" fill="#AEAE00"/>
    <path d="M117.749 119.224C123.028 117.941 126.411 115.966 126.411 113.75C117.992 115.378 111.316 116.325 104.151 116.356L104.167 120.078C108.288 120.038 112.473 119.745 117.749 119.224Z" fill="#8A8A01"/>
    <path d="M113.5 146.5C109.687 138.889 107.679 139.272 111.411 129.623C113.017 127.028 114.086 125.253 115.047 123.656L115.049 123.653L115.05 123.652C115.93 122.19 116.72 120.878 117.749 119.224C112.473 119.745 108.288 120.038 104.167 120.078V146.5H113.5Z" fill="#AEAE00"/>
    <path fill-rule="evenodd" clip-rule="evenodd" d="M86.4818 109.012C82.7128 110.258 80.4113 111.922 80.4113 113.75C90.0555 115.584 97.3251 116.385 104.151 116.356L103.686 10.5H30.2759C30.6397 13.2374 31.0207 15.9031 31.4216 18.5C31.6302 19.8518 31.8442 21.185 32.064 22.5C35.1262 40.826 39.298 55.6136 45.5356 68C47.0291 70.9658 48.641 73.7939 50.3846 76.5C58.8315 89.6102 70.3663 99.8557 86.4818 109.012ZM29.7627 6.5C29.4996 4.37568 29.2456 2.20944 28.9998 0H103.64L103.669 6.5H29.7627ZM90.9118 122.334C90.3365 121.333 89.7841 120.372 89.0739 119.224C94.9948 119.85 99.5412 120.123 104.167 120.078V146.5H94.5C98.7828 138.439 100.226 138.915 95.4113 129.623C93.0956 126.133 91.9655 124.167 90.9118 122.334Z" fill="#D9D900"/>
    <path d="M29.7627 6.5C29.93 7.85015 30.101 9.18338 30.2759 10.5H103.686L103.669 6.5H29.7627Z" fill="#AEAE00"/>
    <path d="M176.978 10.5C177.204 9.18011 177.434 7.84693 177.668 6.5H103.669L103.686 10.5H176.978Z" fill="#8A8A01"/>
    <path d="M126.411 113.75C126.411 111.795 123.779 110.028 119.534 108.758C136.528 98.0859 147.836 87.558 155.686 76.5C157.671 73.7042 159.435 70.8745 161.013 68C168.562 54.2545 171.88 39.4849 174.904 22.5C175.139 21.1802 175.373 19.8471 175.606 18.5C175.91 16.7465 176.213 14.9693 176.521 13.1674L176.529 13.1242L176.531 13.1107L176.532 13.1064C176.679 12.2433 176.828 11.3746 176.978 10.5H103.686L104.151 116.356C111.316 116.325 117.992 115.378 126.411 113.75Z" fill="#AEAE00"/>
    <path d="M178.822 0H103.64L103.669 6.5H177.668C178.039 4.36839 178.421 2.20234 178.822 0Z" fill="#AEAE00"/>
    <path d="M145.411 180.75H141.411H104.433L104.459 186.75H145.411V180.75Z" fill="#2A173E"/>
    <path d="M65.4113 180.75H60.4113V186.75H104.459L104.433 180.75H65.4113Z" fill="#331C4A"/>
    <path d="M135.411 174.75V150.5C135.411 147.739 133.761 146.5 131 146.5H113.5H104.167V150H128V153H131V168H128V171H104.384L104.395 172L104.407 174.75H134.995H135.411Z" fill="#290731"/>
    <path d="M71.8274 150.5V174.75H104.407L104.395 172L104.384 171H79V168H75.9998V153H79V150H104.167V146.5H94.5H75.9998C73.2384 146.5 71.8274 147.739 71.8274 150.5Z" fill="#331C4A"/>
    <path d="M79 153H75.9998V168H79V171H104.384L104.167 150H79V153Z" fill="#D9D900"/>
    <path d="M128 150H104.167L104.384 171H128V168H131V153H128V150Z" fill="#AEAE00"/>
</svg>
